<?xml version="1.0" standalone="no"?>
<!DOCTYPE svg PUBLIC "-//W3C//DTD SVG 20010904//EN"
 "http://www.w3.org/TR/2001/REC-SVG-20010904/DTD/svg10.dtd">
<svg version="1.0" xmlns="http://www.w3.org/2000/svg"
 width="1858.000000pt" height="514.000000pt" viewBox="0 0 1858.000000 514.000000"
 preserveAspectRatio="xMidYMid meet">
<metadata>
Created by potrace 1.16, written by Peter Selinger 2001-2019
</metadata>
<g transform="translate(0.000000,514.000000) scale(0.100000,-0.100000)"
fill="#000000" stroke="none">
<path d="M7850 4982 c0 -18 58 -173 74 -197 8 -13 30 -25 49 -29 39 -7 52 -30
60 -103 6 -51 10 -50 -113 -26 l-86 16 -50 -54 c-27 -30 -85 -92 -130 -139
-71 -75 -621 -668 -1074 -1160 -85 -92 -355 -383 -600 -647 -703 -757 -812
-876 -821 -901 -5 -13 -9 -47 -9 -77 0 -93 38 -85 -406 -85 l-394 0 0 -35 0
-35 2625 0 c1444 0 2625 1 2625 3 0 2 -20 38 -44 80 -81 144 -125 325 -127
532 -1 61 -3 102 -6 92 -3 -12 -14 -17 -38 -17 -25 0 -37 -6 -46 -22 -24 -47
-70 -96 -103 -112 -18 -8 -139 -41 -267 -71 -129 -30 -259 -63 -289 -73 l-55
-17 154 -5 154 -5 23 -91 c22 -91 40 -135 75 -186 11 -14 19 -29 19 -32 0 -3
-155 -6 -346 -6 l-345 0 25 33 c31 41 61 123 71 196 l7 54 -33 -7 c-19 -3 -64
-9 -100 -12 l-67 -7 -11 -56 c-12 -62 -59 -169 -84 -189 -20 -17 -78 -25 -96
-13 -11 7 -8 16 17 47 17 22 44 68 58 104 33 78 37 179 10 250 -10 25 -22 89
-26 143 -10 106 -28 157 -67 182 -38 26 -121 39 -193 31 l-66 -7 42 -44 c149
-155 130 -608 -29 -692 -23 -12 -53 -16 -106 -15 -41 1 -77 5 -80 8 -3 3 0 13
6 23 9 15 6 29 -13 72 -38 81 -54 163 -54 278 l0 104 -37 -7 c-21 -3 -60 -6
-86 -6 l-49 0 30 -30 c17 -16 38 -51 47 -77 23 -65 30 -195 15 -266 -13 -65
-51 -119 -70 -101 -9 9 -8 19 3 41 42 79 44 226 6 328 -30 82 -54 97 -151 103
l-83 4 27 -28 c15 -16 37 -51 50 -79 44 -98 25 -335 -30 -364 -10 -5 -48 -6
-87 -2 l-69 6 -23 65 c-15 44 -23 89 -23 138 0 66 -2 72 -21 72 -49 0 -79 44
-79 116 0 46 24 66 165 134 66 32 302 149 525 260 439 219 418 212 419 134 1
-17 8 -53 16 -82 22 -71 85 -144 85 -97 0 28 41 97 76 129 l34 31 0 1018 c0
811 2 1017 12 1017 19 0 629 -128 634 -132 2 -3 -33 -25 -79 -50 -93 -52 -337
-256 -380 -317 -59 -85 -57 -64 -57 -800 0 -371 1 -676 3 -677 1 -1 34 11 72
26 l70 28 5 -87 c3 -52 1 -89 -5 -93 -5 -4 -39 -18 -75 -30 -36 -11 -60 -23
-55 -24 6 -2 60 14 120 34 l110 38 6 71 c8 88 31 136 78 165 20 13 110 54 201
91 201 83 260 93 319 54 21 -14 54 -47 72 -72 l33 -46 47 135 c25 75 51 141
56 148 5 7 25 40 43 72 l33 59 -65 -6 c-36 -3 -88 -15 -115 -25 l-50 -19 -6
121 c-7 165 3 457 17 475 6 8 31 23 56 34 38 18 64 21 165 19 97 -1 116 1 100
11 -26 15 -185 14 -245 -3 -25 -7 -57 -21 -73 -32 -33 -24 -54 -18 -63 17 -16
63 23 111 113 140 32 11 59 20 60 20 2 1 -26 109 -61 241 -36 131 -64 239 -63
240 1 1 127 -19 281 -44 l278 -47 44 -85 c23 -47 43 -90 43 -96 1 -5 -34 -30
-76 -53 -43 -24 -118 -69 -167 -100 -85 -53 -87 -56 -62 -64 22 -7 36 -3 80
27 30 20 59 36 65 36 7 0 11 -39 11 -115 l0 -115 -59 -30 c-73 -36 -83 -50
-39 -50 55 0 57 -5 60 -138 l3 -121 87 40 c47 22 114 44 148 50 227 36 447
-145 539 -445 32 -103 34 -100 -55 -92 -143 12 -459 56 -549 77 -128 30 -198
16 -283 -56 -111 -93 -215 -393 -211 -605 l1 -55 9 59 c21 143 76 295 139 385
103 147 234 171 358 66 60 -51 65 -69 71 -298 7 -217 9 -226 52 -227 9 0 30
-5 48 -11 l31 -11 0 -107 c0 -237 -73 -488 -177 -608 -15 -18 -53 -46 -83 -63
l-55 -30 227 0 c130 0 238 4 253 10 15 6 46 26 68 45 l41 35 1558 0 1558 0 0
35 0 35 -480 0 c-264 0 -480 3 -480 6 0 3 18 26 40 51 47 54 92 164 114 282
16 84 22 201 9 201 -3 0 -56 -14 -117 -32 l-111 -31 -495 12 c-1012 25 -1073
28 -1235 55 -302 51 -677 134 -699 156 -9 9 -30 620 -22 628 4 3 514 -50 610
-63 l39 -6 -6 313 c-4 172 -12 453 -18 623 -14 395 -16 662 -6 698 4 15 4 27
-1 27 -4 0 -84 -45 -177 -100 -94 -55 -175 -100 -182 -100 -6 0 -15 15 -18 33
-13 56 -65 161 -98 195 -18 19 -48 42 -67 52 -42 21 -120 36 -120 22 0 -27 32
-187 41 -203 14 -26 6 -24 -76 21 -84 46 -115 52 -530 99 -168 19 -258 25
-275 19 -13 -5 -56 -33 -95 -63 -38 -29 -81 -56 -95 -59 -14 -4 -63 2 -110 12
-47 10 -200 42 -341 72 l-256 54 -11 112 c-17 174 -58 247 -166 294 -56 25
-246 42 -246 22z m120 -395 l65 -13 3 -962 2 -962 -59 0 c-32 0 -73 3 -90 6
l-31 7 0 973 0 974 23 -5 c12 -3 51 -11 87 -18z m-220 -465 l0 -248 -47 -46
c-27 -25 -145 -131 -264 -234 -119 -104 -298 -263 -399 -354 -100 -91 -262
-235 -360 -320 -98 -85 -355 -310 -572 -500 -216 -190 -467 -409 -558 -486
-384 -325 -292 -239 980 911 619 559 1133 1027 1144 1040 14 18 19 45 23 131
2 60 1 134 -4 164 l-9 55 -80 -80 c-44 -44 -291 -296 -549 -560 -592 -605
-1798 -1813 -1757 -1760 17 22 51 60 77 85 26 25 191 198 367 385 176 187 345
363 375 392 30 29 99 99 152 157 173 188 1463 1516 1472 1516 5 0 9 -106 9
-248z m1290 -67 c0 -107 -2 -195 -4 -195 -3 0 -16 4 -30 10 l-26 10 0 185 0
185 30 0 30 0 0 -195z m138 88 c34 -118 57 -208 66 -264 6 -35 4 -38 -25 -48
-45 -15 -85 -14 -125 5 l-34 16 0 199 0 199 44 0 43 0 31 -107z m917 25 c6 -6
-108 -78 -123 -78 -6 0 -82 143 -82 154 0 5 197 -68 205 -76z m-1255 -114 l0
-166 -31 -29 c-23 -22 -29 -34 -24 -51 23 -78 157 -56 141 23 -5 25 -2 29 17
29 12 0 39 -5 60 -11 l37 -10 0 -63 c0 -47 -4 -67 -17 -78 -40 -35 -542 -332
-549 -325 -2 2 -4 112 -4 245 l-1 242 28 52 c37 68 137 170 242 247 47 33 88
61 93 61 4 0 8 -75 8 -166z m1243 -210 c128 -20 234 -38 236 -40 4 -4 1 -127
-3 -131 -1 -2 -108 12 -237 30 l-234 32 -3 73 c-2 39 0 72 3 72 4 0 111 -16
238 -36z m-2333 -296 l0 -253 -43 -30 c-23 -16 -427 -311 -897 -655 -829 -607
-1203 -877 -1265 -915 l-30 -18 20 20 c26 27 876 672 1385 1052 217 162 479
359 583 438 l187 144 0 171 c0 162 -1 170 -17 156 -10 -8 -88 -73 -173 -143
-85 -71 -191 -161 -235 -200 -80 -71 -1683 -1426 -1826 -1543 -91 -74 -117
-82 -39 -11 116 105 1660 1452 1810 1579 36 30 119 102 185 161 119 105 348
299 353 299 1 0 2 -114 2 -252z m0 -582 l0 -254 -62 -39 c-35 -22 -281 -160
-548 -308 -267 -147 -570 -315 -675 -373 -337 -187 -679 -368 -636 -335 52 40
1430 840 1753 1019 l107 59 1 188 c0 103 -3 187 -6 187 -3 0 -65 -42 -138 -94
-72 -51 -540 -375 -1040 -720 -1150 -793 -1205 -827 -436 -268 632 460 1657
1190 1673 1191 4 1 7 -113 7 -253z m80 -321 c0 -6 -56 -35 -67 -35 -4 1 8 9
27 20 39 22 40 22 40 15z m-100 -50 c0 -2 -10 -9 -22 -15 -22 -11 -22 -10 -4
4 21 17 26 19 26 11z m-190 -100 c0 -2 -10 -9 -22 -15 -22 -11 -22 -10 -4 4
21 17 26 19 26 11z m4261 -624 c29 -118 63 -195 109 -248 17 -19 30 -36 30
-38 0 -3 -331 -5 -736 -5 -697 0 -736 1 -731 18 3 9 23 62 44 117 l39 100 91
11 c126 16 132 18 210 70 130 88 99 84 533 84 l385 0 26 -109z"/>
<path d="M11438 4320 c-23 -14 -23 -42 0 -63 47 -43 190 -72 225 -45 16 12 16
15 1 37 -33 47 -187 95 -226 71z"/>
<path d="M10933 4268 c-21 -26 -22 -90 -9 -328 8 -135 22 -425 31 -645 21
-519 16 -482 66 -490 22 -4 43 -4 46 -1 6 5 -9 345 -32 746 -8 135 -19 344
-25 465 -6 121 -13 230 -16 243 -5 25 -44 31 -61 10z"/>
<path d="M11033 4187 c4 -45 21 -374 38 -732 18 -357 33 -652 35 -653 1 -2 21
-6 43 -9 40 -6 41 -5 41 25 0 35 -69 1365 -73 1402 -2 19 -11 27 -46 37 l-44
13 6 -83z"/>
<path d="M11156 4154 c3 -44 21 -369 39 -722 18 -354 35 -645 37 -647 2 -1 22
-5 46 -9 l43 -6 -5 52 c-3 29 -22 352 -42 718 -20 366 -40 669 -44 673 -4 4
-23 10 -43 14 l-37 6 6 -79z"/>
<path d="M11275 4103 c3 -54 15 -267 26 -473 21 -400 46 -775 54 -827 6 -33
20 -43 61 -43 20 0 24 5 24 33 0 17 -18 336 -41 707 -45 733 -40 700 -101 700
l-28 0 5 -97z"/>
<path d="M11398 4175 c-6 -6 78 -1405 85 -1411 6 -6 80 -24 84 -20 5 5 -90
1402 -97 1409 -8 9 -67 27 -72 22z"/>
<path d="M11514 4094 c6 -54 29 -411 72 -1079 9 -143 19 -263 23 -267 3 -3 23
-10 44 -13 32 -6 37 -5 37 11 0 11 -20 316 -45 679 -25 363 -45 670 -45 681 0
16 -8 24 -27 28 -16 4 -36 9 -47 12 -17 6 -18 1 -12 -52z"/>
<path d="M11640 4077 c0 -69 89 -1339 94 -1344 2 -3 23 -7 46 -10 l41 -6 -6
69 c-3 38 -17 229 -30 424 -40 571 -68 890 -78 890 -1 0 -17 4 -35 9 l-32 10
0 -42z"/>
<path d="M11753 4058 c3 -18 27 -328 53 -690 l48 -656 41 -5 c22 -2 42 -2 44
-1 2 2 -19 302 -48 666 -28 365 -51 668 -51 675 0 14 -22 27 -64 37 -28 7 -28
6 -23 -26z"/>
<path d="M11879 4051 c-6 -60 6 -242 51 -766 17 -187 34 -390 38 -452 5 -65
14 -119 22 -128 7 -8 28 -15 47 -15 34 0 35 1 30 33 -3 17 -29 321 -58 674
l-53 642 -38 9 c-21 6 -38 7 -39 3z"/>
<path d="M11994 3983 c3 -21 29 -319 57 -663 28 -344 53 -627 55 -628 1 -2 21
-6 43 -9 l41 -6 0 46 c0 57 -23 336 -55 662 -14 138 -29 311 -35 385 -5 74
-14 150 -20 169 -12 42 -47 81 -73 81 -16 0 -18 -5 -13 -37z"/>
<path d="M12280 3462 c0 -15 9 -21 40 -26 42 -7 44 -9 54 -65 l6 -34 -46 7
-45 6 3 -33 3 -32 55 3 c30 2 59 7 63 12 12 11 -13 158 -28 164 -7 2 -33 8
-59 11 -42 7 -46 5 -46 -13z"/>
<path d="M10910 2507 l0 -94 38 -7 c20 -3 63 -6 95 -6 l57 0 0 89 c0 50 -3 92
-7 94 -5 3 -47 8 -95 12 l-88 7 0 -95z"/>
<path d="M9689 2540 c-28 -29 -45 -62 -65 -122 -66 -203 -31 -602 61 -702 27
-30 78 -35 109 -11 18 14 18 16 3 33 -23 25 -45 93 -60 183 -12 70 -14 74 -41
77 -21 3 -26 7 -21 20 25 65 25 144 0 204 -5 13 0 19 19 24 19 5 27 14 31 40
3 19 8 51 11 71 9 55 34 124 57 157 l20 29 -22 18 c-35 28 -60 23 -102 -21z"/>
<path d="M12310 2391 c0 -89 1 -91 80 -91 l48 0 6 54 c13 98 -2 116 -91 116
l-43 0 0 -79z"/>
<path d="M7701 2164 c-42 -53 -61 -197 -42 -309 15 -83 34 -122 67 -137 39
-18 46 0 24 60 -11 29 -20 61 -20 71 0 10 -6 21 -13 24 -16 6 -15 133 2 150 6
6 11 21 11 34 0 12 9 44 19 72 11 27 17 52 14 55 -14 14 -43 4 -62 -20z"/>
<path d="M257 879 c-95 -15 -157 -93 -157 -199 0 -62 24 -123 62 -157 25 -24
121 -66 174 -77 18 -4 40 -16 49 -26 16 -17 15 -19 -8 -34 -31 -21 -81 -11
-106 20 -17 21 -27 24 -90 24 l-71 0 0 -100 0 -100 70 0 c51 0 71 4 77 15 8
13 14 12 48 -5 74 -37 180 -21 240 37 67 65 82 200 31 275 -32 48 -80 76 -179
106 -91 27 -109 41 -87 67 23 27 70 18 106 -20 30 -33 37 -35 93 -35 l61 0 0
100 0 100 -64 0 c-42 0 -66 -4 -69 -12 -3 -10 -11 -9 -33 3 -38 21 -88 27
-147 18z"/>
<path d="M4213 879 c-103 -13 -181 -84 -218 -197 -25 -75 -17 -230 13 -289 34
-66 78 -110 140 -140 52 -26 66 -28 167 -27 84 0 122 5 160 20 l50 20 3 97 c1
53 1 97 -2 97 -2 0 -28 -11 -58 -25 -146 -68 -256 -1 -246 151 6 93 60 156
122 140 31 -8 66 -59 66 -98 0 -28 0 -28 70 -28 l70 0 0 135 0 135 -69 0 c-61
0 -69 -2 -74 -21 l-6 -21 -29 22 c-38 28 -92 38 -159 29z"/>
<path d="M4854 878 c-142 -16 -230 -104 -256 -257 -28 -163 42 -315 171 -375
69 -31 227 -30 292 2 97 48 151 123 171 241 27 156 -35 300 -155 362 -48 25
-143 36 -223 27z m121 -193 c24 -48 27 -189 7 -248 -18 -50 -54 -74 -88 -58
-67 30 -85 241 -28 329 12 19 23 23 52 20 32 -3 40 -8 57 -43z"/>
<path d="M9559 879 c-145 -23 -231 -141 -232 -319 0 -110 21 -174 78 -238 68
-76 125 -97 260 -96 84 0 122 5 160 20 l50 20 3 97 c1 53 1 97 -2 97 -2 0 -28
-11 -58 -25 -99 -46 -196 -27 -234 47 -36 69 -16 185 40 230 51 42 118 6 131
-70 l7 -42 64 0 64 0 0 135 0 135 -64 0 c-61 0 -65 -1 -74 -27 -6 -16 -11 -23
-11 -16 -1 17 -61 50 -101 55 -19 3 -56 1 -81 -3z"/>
<path d="M16136 878 c-101 -13 -180 -73 -225 -168 -33 -71 -37 -205 -7 -289
63 -180 308 -251 553 -159 l53 19 0 150 0 149 -130 0 -130 0 0 -65 0 -65 40 0
c33 0 40 -3 40 -20 0 -42 -92 -51 -147 -15 -40 27 -66 98 -60 166 8 95 56 149
130 149 40 0 93 -38 108 -77 8 -21 15 -23 74 -23 l65 0 0 120 0 120 -75 0
c-60 0 -75 -3 -75 -15 0 -13 -6 -13 -37 3 -48 24 -102 30 -177 20z"/>
<path d="M18109 879 c-145 -23 -230 -140 -232 -319 0 -110 21 -174 78 -238 68
-76 125 -97 260 -96 84 0 122 5 160 20 l50 20 3 97 c1 53 1 97 -2 97 -2 0 -28
-11 -58 -25 -99 -46 -196 -27 -234 47 -35 68 -17 176 38 228 49 45 120 9 133
-68 l7 -42 64 0 64 0 0 135 0 135 -64 0 c-61 0 -65 -1 -74 -27 -6 -16 -11 -23
-11 -16 -1 17 -61 50 -101 55 -19 3 -56 1 -81 -3z"/>
<path d="M730 796 l0 -75 39 -3 38 -3 -51 -165 -52 -165 -32 -3 -32 -3 0 -75
0 -74 145 0 145 0 0 75 0 75 -35 0 c-37 0 -38 2 -29 38 6 20 12 22 75 22 53 0
69 -3 69 -14 0 -8 3 -21 6 -30 5 -12 0 -16 -20 -16 -26 0 -26 -1 -26 -75 l0
-75 185 0 185 0 0 75 0 75 -33 0 -33 0 -70 245 -69 245 -202 0 -203 0 0 -74z
m250 -243 c0 -9 -15 -13 -44 -13 l-43 0 26 87 26 86 17 -74 c9 -41 17 -80 18
-86z"/>
<path d="M1370 795 l0 -75 35 0 35 0 0 -170 0 -170 -35 0 -35 0 0 -75 0 -75
180 0 180 0 0 75 0 75 -35 0 -35 0 0 60 0 60 40 0 40 0 0 55 0 55 -40 0 -40 0
0 55 0 55 44 0 45 0 11 -55 11 -55 65 0 64 0 0 130 0 130 -265 0 -265 0 0 -75z"/>
<path d="M1930 795 l0 -75 40 0 40 0 0 -170 0 -170 -40 0 -40 0 0 -75 0 -75
275 0 275 0 0 140 0 141 -57 -3 -57 -3 -19 -62 -19 -63 -54 0 -54 0 0 70 0 70
55 0 55 0 0 55 0 55 -55 0 -55 0 0 45 0 45 54 0 55 0 19 -52 20 -53 56 -3 56
-3 0 131 0 130 -275 0 -275 0 0 -75z"/>
<path d="M2500 740 l0 -130 59 0 59 0 9 53 c7 43 12 53 31 55 l22 3 0 -170 0
-171 -30 0 -30 0 0 -75 0 -75 180 0 180 0 0 75 0 75 -30 0 -30 0 0 170 0 170
24 0 c21 0 24 -6 31 -55 l6 -55 60 0 59 0 0 130 0 130 -300 0 -300 0 0 -130z"/>
<path d="M3140 795 c0 -72 1 -75 23 -75 18 0 41 -25 105 -114 79 -111 82 -117
82 -170 0 -56 0 -56 -30 -56 l-30 0 0 -75 0 -75 175 0 175 0 0 75 0 75 -30 0
-30 0 0 65 c0 62 3 71 61 170 61 105 61 105 100 105 l39 0 0 75 0 75 -135 0
-135 0 0 -75 c0 -73 1 -75 25 -75 14 0 25 -3 25 -6 0 -8 -40 -74 -44 -74 -2 0
-15 18 -30 40 -20 31 -23 40 -11 40 12 0 15 15 15 75 l0 75 -175 0 -175 0 0
-75z"/>
<path d="M5300 795 l0 -75 40 0 40 0 0 -170 0 -170 -40 0 -40 0 0 -75 0 -75
140 0 140 0 0 75 0 75 -35 0 -35 0 0 108 1 107 77 -180 78 -180 63 0 64 0 58
155 c33 85 61 160 63 165 2 6 5 -32 5 -82 1 -93 1 -93 -24 -93 -24 0 -25 -2
-25 -75 l0 -75 170 0 170 0 0 75 0 75 -35 0 -35 0 0 170 0 170 35 0 35 0 0 75
0 75 -163 0 -164 0 -53 -136 c-30 -74 -57 -137 -60 -139 -4 -2 -31 58 -61 133
l-55 137 -177 3 -177 2 0 -75z"/>
<path d="M6250 796 l0 -76 30 0 30 0 0 -170 0 -170 -30 0 -30 0 0 -75 0 -75
175 0 175 0 0 75 0 75 -30 0 c-28 0 -30 2 -30 38 l0 37 73 1 c173 3 249 71
251 224 0 85 -22 125 -89 160 -48 24 -55 25 -287 28 l-238 3 0 -75z m372 -93
c38 -35 10 -98 -49 -109 l-33 -6 0 66 0 66 32 0 c17 0 40 -7 50 -17z"/>
<path d="M6940 795 l0 -75 30 0 30 0 0 -170 0 -170 -30 0 -30 0 0 -75 0 -75
255 0 255 0 0 145 0 145 -55 0 -54 0 -11 -42 c-25 -95 -23 -93 -73 -96 l-47
-3 0 170 0 171 35 0 35 0 0 75 0 75 -170 0 -170 0 0 -75z"/>
<path d="M7510 795 l0 -75 30 0 30 0 0 -170 0 -170 -30 0 -30 0 0 -75 0 -75
170 0 170 0 0 75 0 75 -35 0 -35 0 0 170 0 170 35 0 35 0 0 75 0 75 -170 0
-170 0 0 -75z"/>
<path d="M7962 798 l3 -73 38 -3 c42 -4 42 -3 23 -63 -8 -24 -31 -97 -51 -161
-35 -116 -37 -118 -66 -118 l-29 0 0 -75 0 -75 145 0 145 0 0 75 0 75 -39 0
c-38 0 -39 1 -32 28 7 25 11 27 71 30 65 3 80 -4 80 -40 0 -11 -8 -18 -20 -18
-18 0 -20 -7 -20 -75 l0 -75 180 0 180 0 0 75 0 75 -30 0 c-32 0 -25 -18 -100
245 -17 61 -40 140 -51 178 l-20 67 -205 0 -205 0 3 -72z m237 -160 c6 -29 14
-63 17 -75 6 -21 3 -23 -41 -23 -35 0 -46 3 -42 13 3 7 13 41 22 75 10 34 21
62 25 62 4 0 12 -24 19 -52z"/>
<path d="M8600 795 l0 -75 30 0 30 0 0 -170 0 -170 -30 0 -30 0 0 -75 0 -75
130 0 130 0 0 75 0 75 -35 0 -35 0 0 93 0 92 18 -30 c10 -16 51 -92 92 -167
l73 -138 123 0 124 0 0 245 0 245 35 0 35 0 0 75 0 75 -135 0 -135 0 0 -75 0
-75 35 0 35 0 0 -102 0 -103 -52 95 c-28 52 -71 132 -95 178 l-44 82 -150 0
-149 0 0 -75z"/>
<path d="M9950 795 l0 -75 40 0 40 0 0 -170 0 -170 -40 0 -40 0 0 -75 0 -75
275 0 275 0 0 140 0 140 -59 0 -58 0 -18 -65 -17 -65 -54 0 -54 0 0 70 0 70
50 0 50 0 0 55 0 55 -50 0 -50 0 0 45 0 45 54 0 55 0 17 -55 18 -55 58 0 58 0
0 130 0 130 -275 0 -275 0 0 -75z"/>
<path d="M11532 743 l3 -128 61 -3 62 -3 7 56 c6 50 9 55 31 55 l24 0 0 -170
0 -170 -35 0 -35 0 0 -75 0 -75 185 0 185 0 0 75 0 75 -35 0 -35 0 0 170 0
170 24 0 c26 0 30 -7 41 -72 l6 -38 59 0 60 0 0 130 0 130 -305 0 -306 0 3
-127z"/>
<path d="M12210 796 l0 -76 30 0 30 0 0 -170 0 -170 -30 0 -30 0 0 -75 0 -75
170 0 170 0 0 75 0 75 -30 0 -30 0 0 60 0 60 33 0 c58 0 69 -16 77 -119 9
-104 24 -135 71 -145 17 -3 137 -6 265 -6 l234 0 0 75 0 75 -35 0 c-36 0 -42
10 -29 44 8 22 144 24 144 2 0 -8 3 -21 6 -30 5 -12 0 -16 -20 -16 -26 0 -26
-1 -26 -75 l0 -75 185 0 185 0 0 75 0 75 -34 0 -33 0 -69 243 -70 242 -202 3
-202 2 0 -74 0 -75 38 -3 38 -3 -51 -165 -50 -165 -77 -3 -76 -3 -4 60 c-4 64
-33 111 -67 111 -9 0 2 10 24 23 71 40 94 128 56 214 -35 76 -41 78 -333 81
l-258 3 0 -75z m390 -96 c41 -41 10 -89 -63 -97 l-47 -6 0 62 0 61 45 0 c32 0
51 -6 65 -20z m620 -147 c0 -9 -15 -13 -44 -13 l-43 0 26 87 26 86 17 -74 c9
-41 17 -80 18 -86z"/>
<path d="M13620 795 l0 -75 30 0 30 0 0 -170 0 -170 -30 0 -30 0 0 -75 0 -75
170 0 170 0 0 75 0 75 -35 0 -35 0 0 170 0 170 35 0 35 0 0 75 0 75 -170 0
-170 0 0 -75z"/>
<path d="M14010 795 l0 -75 30 0 30 0 0 -170 0 -170 -30 0 -30 0 0 -75 0 -75
130 0 130 0 0 75 0 75 -30 0 -30 0 0 88 1 87 54 -100 c30 -55 69 -128 87 -162
l33 -63 128 0 127 0 0 245 0 245 30 0 30 0 0 75 0 75 -130 0 -130 0 0 -75 0
-75 30 0 30 0 0 -102 -1 -103 -92 177 -92 178 -152 0 -153 0 0 -75z"/>
<path d="M14760 795 l0 -75 35 0 35 0 0 -170 0 -170 -35 0 -35 0 0 -75 0 -75
170 0 170 0 0 75 0 75 -30 0 -30 0 0 170 0 170 30 0 30 0 0 75 0 75 -170 0
-170 0 0 -75z"/>
<path d="M15150 795 l0 -75 35 0 35 0 0 -170 0 -170 -35 0 -35 0 0 -75 0 -75
135 0 135 0 0 75 0 75 -35 0 -35 0 0 93 0 92 91 -167 90 -168 125 0 124 0 0
245 0 245 30 0 30 0 0 75 0 75 -130 0 -130 0 0 -75 0 -75 30 0 30 0 0 -97 c0
-53 -2 -94 -4 -92 -2 2 -43 79 -90 172 l-88 167 -154 0 -154 0 0 -75z"/>
<path d="M16760 795 l0 -75 30 0 30 0 0 -170 0 -170 -30 0 -30 0 0 -75 0 -75
260 0 260 0 0 145 0 145 -58 0 -58 0 -18 -70 -18 -70 -44 0 -44 0 0 170 0 170
30 0 30 0 0 75 0 75 -170 0 -170 0 0 -75z"/>
<path d="M17330 795 l0 -75 30 0 30 0 0 -170 0 -170 -30 0 -30 0 0 -75 0 -75
260 0 260 0 0 145 0 145 -58 0 -58 0 -18 -70 -18 -70 -44 0 -44 0 0 170 0 170
30 0 30 0 0 75 0 75 -170 0 -170 0 0 -75z"/>
<path d="M10869 830 c-79 -24 -125 -93 -115 -173 3 -27 13 -61 22 -75 13 -20
14 -27 4 -30 -7 -3 -30 -20 -50 -39 -71 -64 -75 -182 -8 -245 63 -59 183 -63
271 -8 l50 31 31 -30 c32 -31 33 -31 144 -31 l112 0 0 80 0 80 -48 0 c-38 0
-53 5 -71 24 l-23 25 31 38 c17 22 49 50 71 64 39 24 39 25 40 87 l0 62 -100
0 -100 0 0 -65 c0 -52 3 -65 15 -65 13 0 13 -3 -1 -26 l-17 -25 -33 32 -33 32
29 34 c59 67 32 175 -53 213 -43 20 -121 25 -168 10z m125 -106 c21 -20 20
-38 -1 -59 -16 -16 -18 -16 -35 5 -10 12 -18 26 -18 30 0 8 28 40 35 40 2 0
11 -7 19 -16z m-53 -348 c-28 -12 -71 17 -71 48 0 38 12 38 52 -1 36 -36 38
-38 19 -47z"/>
</g>
</svg>
